# xmcd CD database file
#
# Track frame offsets:
#	150
#	18880
#	39437
#	72362
#
# Disc length: 4440 seconds
#
# Revision: 0
# Processed by: cddbd v1.5PL3 Copyright (c) Steve Scherf et al.
# Submitted via: CDex 1.51
#
DISCID=29115604
DTITLE=Asuka - 7days
DYEAR=2004
DGENRE=Pop
TTITLE0=7days
TTITLE1=Fake Daddy
TTITLE2=7days-miss u, miss me- feet.SHINGO
TTITLE3=CCCD
EXTD=YEAR: 2004
EXTT0=
EXTT1=
EXTT2=
EXTT3=
PLAYORDER=
